<?xml version="1.0" standalone="no"?>
<!DOCTYPE svg PUBLIC "-//W3C//DTD SVG 20010904//EN"
 "http://www.w3.org/TR/2001/REC-SVG-20010904/DTD/svg10.dtd">
<svg version="1.0" xmlns="http://www.w3.org/2000/svg"
 width="256.000000pt" height="256.000000pt" viewBox="0 0 256.000000 256.000000"
 preserveAspectRatio="xMidYMid meet">
<metadata>
Created by potrace 1.13, written by Peter Selinger 2001-2015
</metadata>
<g transform="translate(0.000000,256.000000) scale(0.100000,-0.100000)"
fill="#000000" stroke="none">
<path d="M1001 2542 c-36 -19 -71 -72 -71 -107 0 -37 -17 -48 -86 -57 -103
-12 -145 -62 -122 -145 6 -22 21 -41 41 -53 30 -18 52 -20 300 -20 297 0 306
2 333 66 36 86 -27 154 -142 154 -37 0 -64 22 -64 52 0 35 -31 87 -65 108 -40
25 -80 25 -124 2z"/>
<path d="M284 2265 c-18 -20 -36 -50 -39 -68 -3 -18 -4 -443 -3 -944 l3 -913
38 -37 37 -38 491 -3 491 -3 -6 23 c-4 13 -12 48 -18 78 -6 30 -12 61 -14 67
-3 10 -96 13 -424 13 l-420 0 0 730 0 730 640 0 640 0 0 -431 c0 -407 1 -431
18 -424 9 4 50 9 90 12 l72 6 -2 578 -3 577 -25 27 c-43 47 -77 55 -230 55
l-140 0 0 -35 c0 -20 -6 -50 -14 -68 -16 -39 -76 -94 -114 -104 -15 -5 -151
-8 -302 -8 -257 0 -277 1 -309 20 -55 33 -91 84 -98 143 l-6 52 -160 0 -160 0
-33 -35z"/>
<path d="M542 1708 c-16 -16 -15 -73 2 -87 9 -8 151 -10 507 -9 l494 3 3 44
c2 28 -1 47 -10 52 -22 14 -982 11 -996 -3z"/>
<path d="M542 1378 c-7 -7 -12 -26 -12 -43 0 -17 5 -36 12 -43 9 -9 132 -12
494 -12 265 0 489 3 498 6 22 9 22 89 0 98 -9 3 -233 6 -498 6 -362 0 -485 -3
-494 -12z"/>
<path d="M548 1089 c-22 -12 -24 -71 -4 -88 9 -8 127 -10 417 -9 l404 3 3 38
c6 70 23 67 -412 67 -247 0 -397 -4 -408 -11z"/>
<path d="M1750 939 c-25 -5 -77 -24 -115 -43 -290 -143 -350 -536 -116 -759
263 -251 695 -130 785 219 87 339 -208 650 -554 583z m405 -269 c22 -24 23
-62 2 -92 -17 -26 -194 -226 -269 -306 -36 -37 -58 -52 -77 -52 -18 0 -60 27
-139 90 -104 84 -112 93 -112 125 0 22 8 43 20 55 34 34 68 25 144 -35 38 -30
72 -55 76 -55 4 0 57 55 116 122 60 68 119 133 131 145 28 29 83 31 108 3z"/>
<path d="M542 758 c-7 -7 -12 -26 -12 -43 0 -17 5 -36 12 -43 17 -17 729 -17
746 0 20 20 15 76 -7 88 -30 15 -723 14 -739 -2z"/>
</g>
</svg>
