<?xml version="1.0" encoding="utf-8"?>
<!-- Svg Vector Icons : http://www.onlinewebfonts.com/icon -->
<!DOCTYPE svg PUBLIC "-//W3C//DTD SVG 1.1//EN" "http://www.w3.org/Graphics/SVG/1.1/DTD/svg11.dtd">
<svg version="1.1" xmlns="http://www.w3.org/2000/svg" xmlns:xlink="http://www.w3.org/1999/xlink" x="0px" y="0px" viewBox="0 0 1000 1000" enable-background="new 0 0 1000 1000" xml:space="preserve">
<metadata> Svg Vector Icons : http://www.onlinewebfonts.com/icon </metadata>
<g><path d="M398,234.7c30.2,0,41.5,3.3,61.2,20.4h530.7l0.1-122.6c0-22.3-21.1-40.7-40.9-40.7L268.5,92c-19.8,0-35.9,18.2-35.9,40.5l2.2,102.2H398z"/><path d="M483.3,320.8c0,65.2-45.3,97.5-105.7,97.5h-61.2c-5.7,55.9-39.4,124.5-81.9,151.8v13.7c0,21.3,16.1,38.7,35.8,38.7l678.8,0c19.8,0,40.8-19.5,40.8-40.8l0.1-305.8H475C480.3,289.7,483.3,304.9,483.3,320.8z M762.8,336.6h148.1c9.8,0,17.8,9.2,17.8,20.5c0,11.3-8,20.5-17.8,20.5H762.8c-9.8,0-17.8-9.2-17.8-20.5C745,345.8,753,336.6,762.8,336.6z"/><path d="M724.6,642.9h-449c-38.7,0-60.8-24.7-62.5-63.8c-14.5,4.4-31.2,11.6-47,11.6c-9.9,0-16.6-13.1-16.6-23.2c0-10.1,8.1-18.4,18-18.4c68.9,0,104-39.4,108-110.4c1-18.5,14.2-42.9,40.8-40.8H398c33.6-3.1,64.6-35.9,61.2-81.6c-2.8-38.6-50.1-62.3-81.6-61.2H193.9C84.6,255.1,10,341.3,10,452.7v253.2C10,817.4,98.9,908,208.2,908h85.5h22.7l245,0.2c13.3-1,44.4-13,40.8-61.2c-1.9-25.3-24.4-37.7-40.8-40.8H438.8c-10,0-20.4-10.3-20.4-20.4s10.5-20.4,20.4-20.4h285.7c30,0,60.3-13.6,61.2-61.2C786.8,652.4,747.5,642.9,724.6,642.9z"/></g>
</svg>