<?xml version="1.0" standalone="no"?>
<!DOCTYPE svg PUBLIC "-//W3C//DTD SVG 20010904//EN"
 "http://www.w3.org/TR/2001/REC-SVG-20010904/DTD/svg10.dtd">
<svg version="1.0" xmlns="http://www.w3.org/2000/svg"
 width="256.000000pt" height="256.000000pt" viewBox="0 0 256.000000 256.000000"
 preserveAspectRatio="xMidYMid meet">
<metadata>
Created by potrace 1.13, written by Peter Selinger 2001-2015
</metadata>
<g transform="translate(0.000000,256.000000) scale(0.100000,-0.100000)"
fill="#000000" stroke="none">
<path d="M384 1917 l-349 -346 166 -167 167 -167 36 28 c21 16 40 24 45 19 5
-5 44 -58 86 -119 43 -60 94 -127 113 -147 l35 -37 -42 -47 c-46 -52 -53 -95
-25 -144 18 -29 62 -60 88 -60 12 0 16 -11 16 -46 0 -68 50 -113 118 -105 7 1
12 -10 12 -26 0 -63 54 -113 121 -113 21 0 29 -5 29 -17 0 -31 39 -83 74 -99
50 -25 94 -12 146 41 40 41 45 43 64 29 11 -8 43 -14 72 -14 63 0 115 31 128
77 9 29 13 31 68 35 66 5 100 29 118 84 7 21 16 31 25 28 23 -9 90 15 114 40
13 14 26 39 30 57 5 26 14 35 46 46 106 37 133 148 56 236 l-29 32 70 110 c38
61 81 121 94 136 13 14 24 28 24 31 0 3 -117 119 -260 258 l-260 252 -36 -32
c-30 -25 -43 -31 -68 -26 -78 13 -242 17 -269 7 -45 -18 -124 10 -173 60 l-39
41 40 34 40 34 -171 171 -171 171 -349 -345z m601 -167 c21 -22 59 -47 83 -57
l43 -16 -120 -121 c-66 -67 -124 -133 -130 -148 -7 -17 -6 -39 1 -65 18 -69
76 -113 149 -113 41 0 47 5 170 127 l128 126 186 -179 c103 -98 238 -228 301
-289 90 -87 114 -116 114 -137 0 -35 -24 -58 -62 -58 -26 0 -48 17 -133 100
-55 55 -108 100 -116 100 -19 0 -39 -20 -39 -38 0 -8 47 -63 105 -122 58 -58
105 -113 105 -121 0 -30 -30 -59 -62 -59 -25 0 -48 18 -133 100 -57 55 -106
100 -110 100 -18 0 -45 -23 -45 -38 0 -10 41 -58 90 -107 79 -78 90 -94 88
-120 -4 -38 -38 -57 -80 -44 -17 4 -59 36 -93 69 -65 62 -85 67 -106 29 -8
-16 -1 -29 46 -78 59 -62 67 -89 35 -121 -37 -37 -82 -20 -106 41 -18 43 -66
89 -93 89 -15 0 -17 7 -13 53 5 62 -20 102 -70 115 -30 8 -32 10 -32 61 -1 46
-5 56 -34 82 -34 31 -85 39 -122 19 -17 -9 -22 -6 -34 23 -20 48 -61 77 -110
77 -24 0 -50 8 -62 18 -12 9 -68 82 -124 161 l-103 143 219 219 c120 120 221
219 224 219 3 0 23 -18 45 -40z"/>
<path d="M1729 2104 l-154 -154 150 -151 c83 -83 233 -231 336 -329 l185 -179
158 151 158 151 -94 94 c-51 52 -204 202 -339 333 l-245 239 -155 -155z"/>
</g>
</svg>
