<?xml version="1.0" encoding="utf-8"?>
<!-- Generator: Adobe Illustrator 19.0.0, SVG Export Plug-In . SVG Version: 6.00 Build 0)  -->
<svg version="1.1" id="Layer_1" xmlns="http://www.w3.org/2000/svg" xmlns:xlink="http://www.w3.org/1999/xlink" x="0px" y="0px"
	 width="120px" height="120px" viewBox="-119 121 120 120" enable-background="new -119 121 120 120" xml:space="preserve">
<path id="XMLID_28_" fill="#58B847" d="M-4.5,171.8c-6.2-6.1-16.2-6.1-22.4,0.2c-2.4,2.5-3.9,5.5-4.3,8.7l-14.4,0.2
	c-0.3-6.9-2.4-13.3-6-18.7l11.7-11.8c2.4,1.5,5.2,2.4,8.3,2.4c8.7,0,15.8-7.1,15.8-15.8c0-8.7-7.1-15.8-15.8-15.8
	s-15.8,7.1-15.8,15.8c0,3.4,1.1,6.6,3,9.2l-11.1,11.1c-6.6-7-16-11.4-26.4-11.4c-20.1,0-36.3,16.3-36.3,36.3s16.3,36.3,36.3,36.3
	c8.4,0,16.1-2.9,22.3-7.6l12.7,8.7c-1,2.6-1.4,5.6-0.8,8.6c1.6,8.6,9.8,14.3,18.4,12.7s14.3-9.8,12.7-18.4
	c-1.6-8.6-9.8-14.3-18.4-12.7c-3.4,0.6-6.3,2.3-8.5,4.6l-11.4-7.8c4.8-5.3,8-12,9-19.4l15-0.2c0.7,2.8,2.1,5.4,4.2,7.5
	c6.2,6.1,16.2,6.1,22.4-0.2C1.8,187.9,1.7,177.9-4.5,171.8z M-31.6,125.8c6.1,0,11,4.9,11,11c0,6.1-4.9,11-11,11
	c-6.1,0-11-4.9-11-11C-42.6,130.7-37.7,125.8-31.6,125.8z M-34.2,214.3c6-1.1,11.7,2.9,12.8,8.9c1.1,6-2.9,11.7-8.9,12.8
	c-6,1.1-11.7-2.9-12.8-8.9C-44.1,221.2-40.2,215.4-34.2,214.3z M-81.9,207.4c-14,0-25.3-11.3-25.3-25.3c0-14,11.3-25.3,25.3-25.3
	s25.3,11.3,25.3,25.3C-56.6,196-67.9,207.4-81.9,207.4z M-7.8,190.8c-4.3,4.3-11.2,4.4-15.6,0.1c-4.3-4.3-4.4-11.2-0.1-15.6
	c4.3-4.3,11.2-4.4,15.6-0.1C-3.6,179.4-3.5,186.4-7.8,190.8z"/>
<rect x="-119" y="121" fill="none" width="120" height="120"/>
</svg>
