<?xml version="1.0" encoding="utf-8"?>
<!-- Generator: Adobe Illustrator 18.1.1, SVG Export Plug-In . SVG Version: 6.00 Build 0)  -->
<!DOCTYPE svg PUBLIC "-//W3C//DTD SVG 1.1//EN" "http://www.w3.org/Graphics/SVG/1.1/DTD/svg11.dtd">
<svg version="1.1" id="Layer_1" xmlns="http://www.w3.org/2000/svg" xmlns:xlink="http://www.w3.org/1999/xlink" x="0px" y="0px"
	 width="500px" height="500px" viewBox="0 0 500 500" enable-background="new 0 0 500 500" xml:space="preserve">
<g>
	<path fill="#488B17" d="M250,497.6L250,497.6C112.9,497.6,1.5,386.1,1.5,249.1C1.5,112.3,112.5,0.9,249.2,0.5l0.3,0l0.8,0
		c136.9,0.2,248.3,111.6,248.3,248.6C498.5,386.1,387.1,497.6,250,497.6L250,497.6z M249.7,20C123.5,20.1,20.9,122.9,20.9,249.1
		c0,126.3,102.7,229.1,229,229.1h1.1c125.8-0.6,228-103.2,228-229.1C479.1,122.8,376.3,20,250,20L249.7,20z"/>
</g>
<g>
	<path fill="#488B17" d="M169.7,265.7c-7.2,0-13,5.8-13,13v38.3c0,7.2,5.8,13,13,13h22.5c7.2,0,13-5.8,13-13v-38.3
		c0-7.2-5.8-13-13-13H169.7z"/>
	<path fill="#488B17" d="M236.3,234.8c-7.2,0-13,5.8-13,13v69.2c0,7.2,5.8,13,13,13h22.5c7.2,0,13-5.8,13-13v-69.2
		c0-7.2-5.8-13-13-13H236.3z"/>
	<path fill="#488B17" d="M326.4,203.7h-22.5c-7.2,0-13,5.8-13,13v100.3c0,7.2,5.8,13,13,13h22.5c7.2,0,13-5.8,13-13V216.7
		C339.4,209.5,333.6,203.7,326.4,203.7z"/>
	<path fill="#488B17" d="M365.7,347.6H134.3c-5.5,0-10,4.8-10,10.7v0.7c0,5.9,4.5,10.7,10,10.7h231.4c5.5,0,10-4.8,10-10.7v-0.7
		C375.7,352.4,371.2,347.6,365.7,347.6z"/>
	<path fill="#488B17" d="M135.2,243.4l186-101.4l-4.6-7.6c0,0-0.4-0.6-0.5-1.1c-0.3-1,0.9-2.3,2-3c0.8-0.5,1.6-0.7,2.4-0.8l40-4.8
		c0.1,0,0.2,0,0.3,0c1.5,0,2.1,0.5,2.3,0.9c0.5,0.9-0.1,2.1-0.3,2.4c-8.5,12.5-22.1,32.9-22.1,32.9c-0.8,1.2-1.5,2.1-2.5,2.8
		c-1.2,0.7-2.3,0.9-2.9,0.8c-0.3-0.1-0.6-0.2-0.8-0.5l-6.9-11.3l-182,97.8l-4.1,2.5C141.5,253,135.1,251.2,135.2,243.4z"/>
</g>
</svg>
