<?xml version="1.0" encoding="utf-8"?>
<!-- Generator: Adobe Illustrator 19.2.1, SVG Export Plug-In . SVG Version: 6.00 Build 0)  -->
<svg version="1.1" id="Layer_1" xmlns="http://www.w3.org/2000/svg" xmlns:xlink="http://www.w3.org/1999/xlink" x="0px" y="0px"
	 viewBox="0 0 100 100" style="enable-background:new 0 0 100 100;" xml:space="preserve">
<style type="text/css">
	.st0{fill:#00833B;}
</style>
<path class="st0" d="M57.6,73.3c-1.1,1.4-2.7,2.4-4.4,2.8c-0.8,0.2-1.1,0.6-1,1.4c0,0.8,0,1.6,0,2.4c0,0.7-0.4,1-1,1
	c-0.9,0-1.7,0-2.6,0c-0.8,0-1-0.5-1.1-1.1c0-0.6,0-1.1,0-1.7c0-1.2-0.1-1.3-1.2-1.5c-1.5-0.3-3-0.6-4.4-1.3c-1.1-0.6-1.2-0.9-0.9-2
	c0.3-0.9,0.5-1.7,0.8-2.6c0.3-1,0.6-1.1,1.5-0.7c1.6,0.9,3.2,1.2,5,1.5c1.1,0.1,2.3,0,3.3-0.5c2-0.9,2.3-3.1,0.6-4.4
	c-0.6-0.5-1.2-0.8-1.9-1.1c-1.7-0.8-3.5-1.3-5.1-2.3c-2.7-1.6-4.3-3.7-4.1-6.9c0.2-3.6,2.3-5.9,5.6-7c0.7-0.3,1-0.4,1.1-0.6V36.8
	v-6.9c0-0.1,0-0.1,0-0.2l0,0h-3.4c-0.7,0-0.9-0.2-1-0.4c-0.1-0.2-0.1-0.6,0.3-1l5.5-8.5c0.1-0.2,0.2-0.3,0.3-0.4
	c0.2-0.2,0.5-0.4,0.9-0.4s0.7,0.3,0.9,0.8l5.5,8.5c0.3,0.4,0.5,0.9,0.2,1.1c-0.1,0.1-0.3,0.3-1,0.3h-3.4l0,0c0,0.1,0,0.1,0,0.2v5.2
	v13.2c0.2,0.4,0.6,0.5,1.5,0.6c1.2,0.2,2.4,0.6,3.5,1c0.7,0.3,0.9,0.8,0.7,1.3c-0.3,0.9-0.6,2-0.9,2.9c-0.3,0.9-0.6,1-1.5,0.7
	c-1.8-0.9-3.6-1.2-5.6-1.1c-0.5,0-1,0.1-1.5,0.3c-1.7,0.8-2,2.7-0.6,3.8c0.8,0.6,1.6,1,2.5,1.3c1.5,0.7,3,1.2,4.4,2
	C59.6,63.6,60.8,69.4,57.6,73.3z M33.4,55.2c-1.1-0.7-2.4-1.1-3.5-1.6c-0.7-0.3-1.3-0.7-1.9-1c-1.1-0.9-0.9-2.4,0.4-3
	c0.4-0.2,0.8-0.2,1.2-0.3c1.5-0.1,3,0.2,4.4,0.9c0.7,0.4,0.9,0.2,1.1-0.5c0.3-0.8,0.5-1.5,0.7-2.4c0.2-0.6,0-0.9-0.6-1
	c-0.9-0.4-1.8-0.7-2.8-0.9c-0.8-0.1-1-0.2-1.2-0.5v-0.4v-5.1v-1.7v-0.1l0,0h2.7c0.6,0,0.8-0.2,0.8-0.2c0.2-0.2,0-0.6-0.2-0.9
	l-4.4-6.7c-0.2-0.4-0.5-0.6-0.8-0.6c-0.3,0-0.5,0.2-0.7,0.3c-0.1,0.1-0.2,0.2-0.3,0.3l-4.4,6.7c-0.3,0.5-0.3,0.8-0.2,0.9
	c0.1,0.1,0.3,0.3,0.9,0.3h2.7l0,0v0.1v1.7v5.1v0.8c-0.1,0.2-0.4,0.3-0.9,0.5c-2.7,0.9-4.3,2.7-4.4,5.6c-0.2,2.6,1.1,4.3,3.2,5.5
	c1.3,0.8,2.7,1.2,4.1,1.8c0.6,0.2,1,0.5,1.5,0.9c1.3,1,1,2.8-0.5,3.5c-0.9,0.4-1.7,0.5-2.6,0.4c-1.4-0.2-2.7-0.6-4-1.2
	c-0.8-0.4-0.9-0.3-1.2,0.5c-0.2,0.7-0.4,1.3-0.6,2.1c-0.3,0.9-0.2,1.1,0.8,1.6c1.1,0.6,2.4,0.9,3.6,1c0.9,0.2,0.9,0.2,1,1.2
	c0,0.5,0,0.9,0,1.3c0,0.6,0.3,0.9,0.9,0.9c0.7,0,1.3,0,2,0c0.6,0,0.9-0.3,0.9-0.9c0-0.7,0-1.2,0-1.9c0-0.7,0.3-0.9,0.9-1.1
	c1.4-0.4,2.6-1.1,3.5-2.3C38,61.7,37,57.2,33.4,55.2z M74.5,55.2c-1.1-0.7-2.4-1.1-3.5-1.6c-0.7-0.3-1.3-0.7-1.9-1
	c-1.1-0.9-0.9-2.4,0.4-3c0.4-0.2,0.8-0.2,1.2-0.3c1.5-0.1,3,0.2,4.4,0.9c0.7,0.4,0.9,0.2,1.1-0.5c0.3-0.8,0.5-1.5,0.7-2.4
	c0.2-0.6,0-0.9-0.6-1c-0.9-0.4-1.8-0.7-2.8-0.9c-0.8-0.1-1-0.2-1.2-0.5v-0.4v-5.1v-1.7v-0.1l0,0H75c0.6,0,0.8-0.2,0.8-0.2
	c0.2-0.2,0-0.6-0.2-0.9l-4.4-6.7c-0.2-0.4-0.5-0.6-0.8-0.6c-0.3,0-0.5,0.2-0.7,0.3c-0.1,0.1-0.2,0.2-0.3,0.3l-4.4,6.7
	c-0.3,0.5-0.3,0.8-0.2,0.9c0.1,0.1,0.3,0.3,0.9,0.3h2.7l0,0v0.1v1.7v5.1v0.8c-0.1,0.2-0.4,0.3-0.9,0.5c-2.7,0.9-4.3,2.7-4.4,5.6
	c-0.2,2.6,1.1,4.3,3.2,5.5c1.2,0.8,2.7,1.2,4.1,1.8c0.6,0.2,1,0.5,1.5,0.9c1.3,1,1,2.8-0.5,3.5c-0.9,0.4-1.7,0.5-2.6,0.4
	c-1.4-0.2-2.7-0.6-4-1.2c-0.8-0.4-0.9-0.3-1.2,0.5c-0.2,0.7-0.4,1.3-0.6,2.1c-0.3,0.9-0.2,1.1,0.8,1.6c1.1,0.6,2.4,0.9,3.6,1
	c0.9,0.2,0.9,0.2,1,1.2c0,0.5,0,0.9,0,1.3c0,0.6,0.3,0.9,0.9,0.9c0.7,0,1.3,0,2,0c0.6,0,0.9-0.3,0.9-0.9c0-0.7,0-1.2,0-1.9
	c0-0.7,0.3-0.9,0.9-1.1c1.4-0.4,2.6-1.1,3.5-2.3C79.1,61.7,78.1,57.2,74.5,55.2z"/>
</svg>
