<?xml version="1.0" encoding="iso-8859-1"?>
<!-- Generator: Adobe Illustrator 16.0.0, SVG Export Plug-In . SVG Version: 6.00 Build 0)  -->
<!DOCTYPE svg PUBLIC "-//W3C//DTD SVG 1.1//EN" "http://www.w3.org/Graphics/SVG/1.1/DTD/svg11.dtd">
<svg version="1.1" id="Capa_1" xmlns="http://www.w3.org/2000/svg" xmlns:xlink="http://www.w3.org/1999/xlink" x="0px" y="0px"
	 width="898.488px" height="898.487px" viewBox="0 0 898.488 898.487" style="enable-background:new 0 0 898.488 898.487;"
	 xml:space="preserve">
<g>
	<g>
		<path d="M514.244,812v81c0,1.966-0.092,3.787-0.264,5.487h313.078c5.521,0,10-4.478,10-10v-21.754c0-5.523-4.479-10-10-10h-11.936
			c-5.521,0-10-4.478-10-10l-0.467-586.186c-0.006-6.498-3.096-12.606-8.33-16.459l-0.141-0.105
			c-3.516-2.588-7.768-3.985-12.133-3.985H114.434c-4.365,0-8.616,1.396-12.132,3.985l-0.142,0.104
			c-5.232,3.853-8.323,9.962-8.329,16.459l-0.468,586.185c0,5.522-4.477,10-10,10H71.429c-5.523,0-10,4.477-10,10v21.754
			c0,5.522,4.477,10,10,10h313.077c-0.171-1.698-0.263-3.52-0.263-5.485v-81c0-35.898,29.102-65,65-65
			C485.142,747,514.244,776.102,514.244,812z M217.148,804.395c0,5.523-4.477,10-10,10h-33.026c-5.523,0-10-4.477-10-10v-33.025
			c0-5.523,4.477-10,10-10h33.026c5.523,0,10,4.477,10,10V804.395z M217.148,700.947c0,5.522-4.477,10-10,10h-33.026
			c-5.523,0-10-4.478-10-10v-33.026c0-5.522,4.477-10,10-10h33.026c5.523,0,10,4.478,10,10V700.947z M217.148,597.507
			c0,5.523-4.477,10-10,10h-33.026c-5.523,0-10-4.477-10-10v-33.025c0-5.523,4.477-10,10-10h33.026c5.523,0,10,4.477,10,10V597.507z
			 M217.148,494.067c0,5.522-4.477,10-10,10h-33.026c-5.523,0-10-4.478-10-10v-33.026c0-5.523,4.477-10,10-10h33.026
			c5.523,0,10,4.477,10,10V494.067z M217.483,390.627c0,5.523-4.477,10-10,10h-33.026c-5.523,0-10-4.477-10-10v-33.026
			c0-5.522,4.477-10,10-10h33.026c5.523,0,10,4.478,10,10V390.627z M320.596,804.395c0,5.523-4.477,10-10,10H277.57
			c-5.523,0-10-4.477-10-10v-33.025c0-5.523,4.477-10,10-10h33.025c5.523,0,10,4.477,10,10V804.395z M320.596,700.947
			c0,5.522-4.477,10-10,10H277.57c-5.523,0-10-4.478-10-10v-33.026c0-5.522,4.477-10,10-10h33.025c5.523,0,10,4.478,10,10V700.947z
			 M320.596,597.507c0,5.523-4.477,10-10,10H277.57c-5.523,0-10-4.477-10-10v-33.025c0-5.523,4.477-10,10-10h33.025
			c5.523,0,10,4.477,10,10V597.507z M320.596,494.067c0,5.522-4.477,10-10,10H277.57c-5.523,0-10-4.478-10-10v-33.026
			c0-5.523,4.477-10,10-10h33.025c5.523,0,10,4.477,10,10V494.067z M320.596,390.627c0,5.523-4.477,10-10,10H277.57
			c-5.523,0-10-4.477-10-10v-33.026c0-5.522,4.477-10,10-10h33.025c5.523,0,10,4.478,10,10V390.627z M424.036,701.026
			c0,5.522-4.477,10-10,10H381.01c-5.522,0-10-4.478-10-10V668c0-5.523,4.478-10,10-10h33.026c5.523,0,10,4.477,10,10V701.026z
			 M424.036,597.507c0,5.523-4.477,10-10,10H381.01c-5.522,0-10-4.477-10-10v-33.025c0-5.523,4.478-10,10-10h33.026
			c5.523,0,10,4.477,10,10V597.507z M424.036,494.067c0,5.522-4.477,10-10,10H381.01c-5.522,0-10-4.478-10-10v-33.026
			c0-5.523,4.478-10,10-10h33.026c5.523,0,10,4.477,10,10V494.067z M424.036,390.627c0,5.523-4.477,10-10,10H381.01
			c-5.522,0-10-4.477-10-10v-33.026c0-5.522,4.478-10,10-10h33.026c5.523,0,10,4.478,10,10V390.627z M734.365,804.395
			c0,5.523-4.479,10-10,10h-33.027c-5.521,0-10-4.477-10-10v-33.025c0-5.523,4.479-10,10-10h33.027c5.521,0,10,4.477,10,10V804.395z
			 M734.365,700.947c0,5.522-4.479,10-10,10h-33.027c-5.521,0-10-4.478-10-10v-33.026c0-5.522,4.479-10,10-10h33.027
			c5.521,0,10,4.478,10,10V700.947z M734.365,597.507c0,5.523-4.479,10-10,10h-33.027c-5.521,0-10-4.477-10-10v-33.025
			c0-5.523,4.479-10,10-10h33.027c5.521,0,10,4.477,10,10V597.507z M734.365,494.067c0,5.522-4.479,10-10,10h-33.027
			c-5.521,0-10-4.478-10-10v-33.026c0-5.523,4.479-10,10-10h33.027c5.521,0,10,4.477,10,10V494.067z M680.003,357.602
			c0-5.522,4.477-10,10-10h33.025c5.523,0,10,4.478,10,10v33.026c0,5.523-4.477,10-10,10h-33.025c-5.523,0-10-4.477-10-10V357.602z
			 M577.89,357.602c0-5.522,4.477-10,10-10h33.025c5.523,0,10,4.478,10,10v33.026c0,5.523-4.477,10-10,10H587.89
			c-5.523,0-10-4.477-10-10V357.602z M577.89,461.042c0-5.523,4.477-10,10-10h33.025c5.523,0,10,4.477,10,10v33.026
			c0,5.522-4.477,10-10,10H587.89c-5.523,0-10-4.478-10-10V461.042z M577.89,564.481c0-5.523,4.477-10,10-10h33.025
			c5.523,0,10,4.477,10,10v33.025c0,5.523-4.477,10-10,10H587.89c-5.523,0-10-4.477-10-10V564.481z M577.89,667.921
			c0-5.522,4.477-10,10-10h33.025c5.523,0,10,4.478,10,10v33.026c0,5.522-4.477,10-10,10H587.89c-5.523,0-10-4.478-10-10V667.921z
			 M577.89,771.369c0-5.523,4.477-10,10-10h33.025c5.523,0,10,4.477,10,10v33.025c0,5.523-4.477,10-10,10H587.89
			c-5.523,0-10-4.477-10-10V771.369z M474.451,357.602c0-5.522,4.477-10,10-10h33.025c5.523,0,10,4.478,10,10v33.026
			c0,5.523-4.477,10-10,10h-33.025c-5.523,0-10-4.477-10-10V357.602z M474.451,461.042c0-5.523,4.477-10,10-10h33.025
			c5.523,0,10,4.477,10,10v33.026c0,5.522-4.477,10-10,10h-33.025c-5.523,0-10-4.478-10-10V461.042z M474.451,564.481
			c0-5.523,4.477-10,10-10h33.025c5.523,0,10,4.477,10,10v33.025c0,5.523-4.477,10-10,10h-33.025c-5.523,0-10-4.477-10-10V564.481z
			 M474.451,701.026V668c0-5.523,4.477-10,10-10h33.025c5.523,0,10,4.477,10,10v33.026c0,5.522-4.477,10-10,10h-33.025
			C478.927,711.026,474.451,706.549,474.451,701.026z"/>
		<path d="M61.43,160.529v34.943c0,8.024,6.505,14.529,14.529,14.529h746.57c8.023,0,14.529-6.505,14.529-14.529v-34.943
			c0-8.024-6.506-14.528-14.529-14.528H75.959C67.934,146,61.43,152.505,61.43,160.529z"/>
		<path d="M723.179,0H175.307c-8.024,0-14.529,6.505-14.529,14.529v89.642c0,8.024,6.505,14.529,14.529,14.529h547.872
			c8.023,0,14.529-6.505,14.529-14.529V14.529C737.708,6.505,731.203,0,723.179,0z M287.179,50.15l-19.39,14.088l7.406,22.795
			c0.596,1.833-1.502,3.357-3.062,2.224l-18.221-13.238c-0.697-0.507-1.642-0.507-2.339,0l-18.221,13.238
			c-1.559,1.133-3.657-0.391-3.062-2.224l7.406-22.795l-19.39-14.088c-1.559-1.133-0.758-3.599,1.169-3.599h23.968l7.406-22.794
			c0.595-1.833,3.189-1.833,3.784,0l7.406,22.794h23.968C287.938,46.551,288.738,49.017,287.179,50.15z M420.179,50.15
			l-19.39,14.088l7.406,22.795c0.596,1.833-1.502,3.357-3.062,2.224l-19.39-14.088l-19.39,14.088
			c-1.56,1.133-3.657-0.391-3.062-2.224l7.406-22.795l-19.39-14.088c-1.56-1.133-0.759-3.599,1.169-3.599h23.968l7.406-22.794
			c0.595-1.833,3.188-1.833,3.783,0l7.406,22.794h23.968C420.938,46.551,421.738,49.017,420.179,50.15z M547.179,50.15
			l-19.391,14.088l7.406,22.795c0.596,1.833-1.502,3.357-3.062,2.224l-19.389-14.088l-19.391,14.088
			c-1.559,1.133-3.656-0.391-3.062-2.224l7.406-22.795L478.306,50.15c-1.559-1.133-0.758-3.599,1.17-3.599h23.969l7.406-22.794
			c0.594-1.833,3.188-1.833,3.783,0l7.406,22.794h23.967C547.937,46.551,548.738,49.017,547.179,50.15z M680.179,50.15
			l-19.391,14.088l7.406,22.795c0.596,1.833-1.502,3.357-3.062,2.224l-19.389-14.088l-19.391,14.088
			c-1.559,1.133-3.656-0.391-3.062-2.224l7.406-22.795L611.306,50.15c-1.559-1.133-0.758-3.599,1.17-3.599h23.969l7.406-22.794
			c0.594-1.833,3.188-1.833,3.783,0l7.406,22.794h23.967C680.937,46.551,681.738,49.017,680.179,50.15z"/>
	</g>
</g>
<g>
</g>
<g>
</g>
<g>
</g>
<g>
</g>
<g>
</g>
<g>
</g>
<g>
</g>
<g>
</g>
<g>
</g>
<g>
</g>
<g>
</g>
<g>
</g>
<g>
</g>
<g>
</g>
<g>
</g>
</svg>
